<svg width="34" height="2" viewBox="0 0 34 2" fill="none" xmlns="http://www.w3.org/2000/svg">
<g clip-path="url(#clip0_1_149)">
<path d="M31.6892 0.747489C30.8103 0.783947 29.7479 0.815011 28.5017 0.840681C28.5149 0.845889 28.5214 0.853702 28.5214 0.864118C28.5214 0.912481 28.2722 0.960752 27.7737 1.00893C27.2753 1.05711 26.5178 1.10333 25.5012 1.1476C24.4846 1.19187 23.2746 1.23103 21.8711 1.26507C20.4676 1.29911 18.7755 1.32626 16.7948 1.34654C14.8141 1.36682 12.6957 1.37695 10.4396 1.37695C6.88486 1.37695 3.63184 1.34998 0.680504 1.29604C1.1396 1.29753 1.65116 1.29827 2.2152 1.29827C5.16653 1.29827 7.7965 1.2726 10.1051 1.22126C8.72781 1.22052 7.4948 1.20852 6.40609 1.18527C5.31738 1.16202 4.5697 1.13235 4.16308 1.09626C4.59594 1.09812 4.99601 1.09905 5.36329 1.09905C5.92732 1.09905 6.48479 1.09701 7.03571 1.09291C5.5666 1.08436 4.34999 1.06362 3.38589 1.03069C2.42179 0.997768 1.93974 0.959542 1.93974 0.916016V0.913784C2.8317 0.92792 3.78924 0.935547 4.81237 0.936663C3.94665 0.920294 3.258 0.898903 2.74644 0.872489C2.23487 0.846075 1.97909 0.817429 1.97909 0.786551C1.97909 0.753813 2.26767 0.723493 2.84481 0.695592C4.43198 0.751023 6.36346 0.795387 8.63927 0.828683C10.9151 0.861979 13.3516 0.880487 15.9487 0.884208C15.8438 0.870071 15.7913 0.856306 15.7913 0.842913C15.7913 0.793062 16.4111 0.750558 17.6507 0.715402C18.8902 0.680246 20.3888 0.662667 22.1465 0.662667C23.9829 0.662667 25.5307 0.681641 26.79 0.719587C28.2197 0.711775 29.5642 0.697266 30.8235 0.67606C30.3381 0.718843 29.4068 0.751953 28.0295 0.775391C29.2494 0.77167 30.4693 0.76237 31.6892 0.747489Z" fill="white"/>
</g>
<defs>
<clipPath id="clip0_1_149">
<rect width="32.7611" height="1" fill="white" transform="matrix(1 0 0 -1 0.670013 1.52002)"/>
</clipPath>
</defs>
</svg>
