<svg width="96" height="151" viewBox="0 0 96 151" fill="none" xmlns="http://www.w3.org/2000/svg">
<g clip-path="url(#clip0_1_5)">
<path d="M4.14889 89.3854L5.18012 88.3541L14.725 99.242H20.1449L8.05796 85.5962L18.2983 75.3559H12.9023L4.14889 84.2053V71.207H0V99.242H4.14889V89.3854Z" fill="black"/>
<path d="M40.2898 75.3559V78.7374C39.3413 77.4732 38.104 76.4543 36.6813 75.7659C35.2586 75.0775 33.6919 74.7396 32.1119 74.7803C25.9965 74.7803 20.4806 79.0251 20.4806 87.275C20.4806 95.5248 26.0685 99.9375 32.1119 99.9375C33.6888 99.9589 35.249 99.6125 36.6686 98.9256C38.0882 98.2387 39.3281 97.2303 40.2898 95.9804V99.3139H44.4147V75.3319L40.2898 75.3559ZM32.5676 96.2442C27.6273 96.2442 24.7494 92.3831 24.7494 87.275C24.7494 81.4473 28.4906 78.4496 32.5676 78.4496C33.6868 78.4641 34.7907 78.711 35.8095 79.1745C36.8283 79.638 37.7397 80.3081 38.486 81.1423C39.2323 81.9765 39.7971 82.9566 40.1448 84.0206C40.4924 85.0845 40.6153 86.209 40.5056 87.3229C40.5056 92.0474 37.6038 96.2442 32.5676 96.2442Z" fill="black"/>
<path d="M65.0392 99.242H69.1641V84.4451C69.3839 82.2282 68.906 79.998 67.7972 78.0658C67.0098 76.999 65.9728 76.1416 64.777 75.5688C63.5811 74.996 62.2631 74.7252 60.9383 74.7803C59.6171 74.7587 58.3094 75.0494 57.1217 75.6286C55.934 76.2079 54.8999 77.0594 54.1034 78.1138V75.3559H49.9545V99.3379H54.1034V86.7473C53.9188 84.4623 54.5287 82.1835 55.8301 80.2962C56.3422 79.6883 56.9867 79.2058 57.7142 78.8857C58.4417 78.5657 59.2329 78.4164 60.027 78.4496C60.7677 78.4156 61.5062 78.5539 62.1844 78.8535C62.8627 79.1531 63.4623 79.6059 63.9361 80.1763C64.776 81.4782 65.1637 83.0206 65.0392 84.565V99.242Z" fill="black"/>
<path d="M91.8511 78.7374C90.9026 77.4732 89.6653 76.4543 88.2426 75.7659C86.82 75.0775 85.2532 74.7396 83.6732 74.7803C77.5818 74.7803 72.042 79.0251 72.042 87.275C72.042 95.5248 77.6298 99.9375 83.6732 99.9375C85.2501 99.9589 86.8103 99.6125 88.2299 98.9256C89.6495 98.2387 90.8894 97.2303 91.8511 95.9804V99.3139H96V75.3319H91.8511V78.7374ZM84.1289 96.2442C79.1886 96.2442 76.3108 92.3831 76.3108 87.275C76.3108 81.4473 80.052 78.4496 84.1289 78.4496C85.2481 78.4641 86.3521 78.711 87.3709 79.1745C88.3897 79.638 89.3011 80.3081 90.0473 81.1423C90.7936 81.9765 91.3585 82.9566 91.7061 84.0206C92.0538 85.0845 92.1766 86.209 92.0669 87.3229C92.0669 92.0474 89.2131 96.2442 84.1289 96.2442Z" fill="black"/>
<path d="M4.02898 114.614C3.77346 112.37 4.26215 110.103 5.41993 108.163C5.82786 107.662 6.34981 107.265 6.94222 107.007C7.53463 106.748 8.18031 106.635 8.82538 106.676C9.6863 106.692 10.5223 106.968 11.2236 107.468L13.1901 103.727C12.041 103.148 10.7821 102.821 9.49688 102.767C8.3943 102.8 7.31709 103.106 6.36249 103.658C5.40788 104.211 4.60592 104.993 4.02898 105.933V103.343H0V127.157H4.02898V114.614Z" fill="black"/>
<path d="M26.2843 112.744H22.1354V126.965H26.2843V112.744Z" fill="black"/>
<path d="M24.1979 102.767C23.6134 102.767 23.0422 102.941 22.5566 103.266C22.071 103.591 21.6929 104.053 21.4704 104.594C21.2478 105.134 21.1908 105.729 21.3066 106.301C21.4224 106.874 21.7057 107.4 22.1207 107.811C22.5356 108.223 23.0634 108.502 23.6372 108.613C24.211 108.724 24.8048 108.662 25.3434 108.435C25.882 108.208 26.341 107.827 26.6622 107.338C26.9834 106.85 27.1524 106.278 27.1476 105.693C27.1477 105.307 27.0712 104.924 26.9227 104.568C26.7741 104.211 26.5565 103.888 26.2822 103.616C26.008 103.344 25.6826 103.129 25.3249 102.983C24.9671 102.837 24.5841 102.764 24.1979 102.767Z" fill="black"/>
<path d="M52.4487 117.252C52.6388 119.036 52.2341 120.831 51.2975 122.361C50.7953 122.98 50.1526 123.471 49.4226 123.792C48.6927 124.113 47.8967 124.256 47.1007 124.207C46.3047 124.256 45.5086 124.113 44.7787 123.792C44.0488 123.471 43.406 122.98 42.9038 122.361C41.962 120.825 41.5571 119.019 41.7527 117.228V103.319H37.6038V117.708C37.4643 118.993 37.5858 120.292 37.9608 121.528C38.3358 122.764 38.9567 123.912 39.7862 124.903C41.7373 126.821 44.3642 127.897 47.1007 127.897C49.8371 127.897 52.464 126.821 54.4152 124.903C55.2447 123.912 55.8656 122.764 56.2406 121.528C56.6156 120.292 56.737 118.993 56.5976 117.708V103.319H52.4487V117.252Z" fill="black"/>
<path d="M88.2298 102.767C86.7961 102.699 85.3706 103.02 84.1041 103.695C82.8376 104.37 81.7772 105.376 81.0352 106.604C80.4117 105.422 79.4712 104.437 78.319 103.759C77.1668 103.081 75.8485 102.738 74.5121 102.767C73.3444 102.744 72.1897 103.015 71.1544 103.556C70.1192 104.097 69.2367 104.889 68.5886 105.861V103.463H64.4397V127.157H68.5886V114.207C68.5886 111.329 69.1162 106.437 73.8406 106.437C78.5651 106.437 78.1574 111.401 78.1574 113.056V127.157H82.3063V113.919C82.3063 111.041 82.8099 106.437 87.5823 106.437C91.5154 106.437 91.8511 110.01 91.8511 112.72V127.157H96V112C95.976 108.595 95.1606 102.767 88.2298 102.767Z" fill="black"/>
<path d="M95.8801 67.0581C94.2733 38.8553 73.5768 16.528 47.988 16.528C22.3992 16.528 1.63078 38.8553 0.0959282 67.0581H4.29278C5.89958 41.1815 24.8454 20.6769 47.988 20.6769C71.1306 20.6769 90.1004 41.1815 91.7072 67.0581C91.7072 68.2332 91.8511 69.4563 91.8511 70.6075V71.207H96V70.6075C96 69.4084 95.952 68.2332 95.8801 67.0581Z" fill="black"/>
<path d="M96 131.426H0V134.136H96V131.426Z" fill="black"/>
<path d="M96 138.309H0V141.714H96V138.309Z" fill="black"/>
<path d="M96 145.911H0V150.06H96V145.911Z" fill="black"/>
<path d="M42.736 17.6791C42.736 17.6791 69.284 14.4416 76.5746 0.843756C78.709 -3.08929 74.5601 17.1275 62.5931 19.7656" fill="black"/>
</g>
<defs>
<clipPath id="clip0_1_5">
<rect width="96" height="149.72" fill="white" transform="translate(0 0.340149)"/>
</clipPath>
</defs>
</svg>
