<svg id="logo" data-name="logo" xmlns="http://www.w3.org/2000/svg" viewBox="0 0 40.03 62.43"><defs><style>.cls-1{fill:#000;}</style></defs><title>logo_kanarium</title><polygon class="cls-1" points="1.73 37.13 2.16 36.7 6.14 41.24 8.4 41.24 3.36 35.55 7.63 31.28 5.38 31.28 1.73 34.97 1.73 29.55 0 29.55 0 41.24 1.73 41.24 1.73 37.13"/><path class="cls-1" d="M17.12,32.4v1.41a4.13,4.13,0,0,0-3.41-1.65c-2.55,0-4.85,1.77-4.85,5.21s2.33,5.28,4.85,5.28A4.23,4.23,0,0,0,17.12,41v1.39h1.72v-10ZM13.9,41.11c-2.06,0-3.26-1.61-3.26-3.74,0-2.43,1.56-3.68,3.26-3.68a3.37,3.37,0,0,1,3.31,3.7C17.21,39.36,16,41.11,13.9,41.11Z" transform="translate(-0.32 -1.12)"/><path class="cls-1" d="M27.44,42.36h1.72V36.19a4.46,4.46,0,0,0-.57-2.66,3.38,3.38,0,0,0-2.86-1.37,3.5,3.5,0,0,0-2.85,1.39V32.4H21.15v10h1.73V37.15a4.15,4.15,0,0,1,.72-2.69,2.17,2.17,0,0,1,1.75-.77,2,2,0,0,1,1.63.72,2.94,2.94,0,0,1,.46,1.83Z" transform="translate(-0.32 -1.12)"/><path class="cls-1" d="M38.62,33.81a4.13,4.13,0,0,0-3.41-1.65c-2.54,0-4.85,1.77-4.85,5.21s2.33,5.28,4.85,5.28A4.23,4.23,0,0,0,38.62,41v1.39h1.73v-10H38.62Zm-3.22,7.3c-2.06,0-3.26-1.61-3.26-3.74,0-2.43,1.56-3.68,3.26-3.68a3.37,3.37,0,0,1,3.31,3.7C38.71,39.36,37.52,41.11,35.4,41.11Z" transform="translate(-0.32 -1.12)"/><path class="cls-1" d="M2,48.77a4.3,4.3,0,0,1,.58-2.69A1.69,1.69,0,0,1,4,45.46a1.78,1.78,0,0,1,1,.33l.82-1.56a3.78,3.78,0,0,0-1.54-.4A2.77,2.77,0,0,0,2,45.15V44.07H.32V54H2Z" transform="translate(-0.32 -1.12)"/><rect class="cls-1" x="9.23" y="46.87" width="1.73" height="5.93"/><path class="cls-1" d="M10.41,43.83a1.23,1.23,0,1,0,1.23,1.22A1.22,1.22,0,0,0,10.41,43.83Z" transform="translate(-0.32 -1.12)"/><path class="cls-1" d="M22.19,49.87A3.39,3.39,0,0,1,21.71,52a2.09,2.09,0,0,1-1.75.77A2.09,2.09,0,0,1,18.21,52a3.39,3.39,0,0,1-.48-2.14v-5.8H16v6a4,4,0,0,0,.91,3,4.35,4.35,0,0,0,6.1,0,4,4,0,0,0,.91-3v-6H22.19Z" transform="translate(-0.32 -1.12)"/><path class="cls-1" d="M37.11,43.83a3.32,3.32,0,0,0-3,1.6,3,3,0,0,0-2.72-1.6,2.9,2.9,0,0,0-2.47,1.29v-1H27.19V54h1.73V48.6c0-1.2.22-3.24,2.19-3.24s1.8,2.07,1.8,2.76V54h1.73V48.48c0-1.2.21-3.12,2.2-3.12,1.64,0,1.78,1.49,1.78,2.62V54h1.73V47.68C40.34,46.26,40,43.83,37.11,43.83Z" transform="translate(-0.32 -1.12)"/><path class="cls-1" d="M40.3,28.94C39.63,17.18,31,7.87,20.33,7.87S1,17.18.36,28.94H2.11C2.78,18.15,10.68,9.6,20.33,9.6s17.56,8.55,18.23,19.34c0,.49.06,1,.06,1.48v.25h1.73v-.25C40.35,29.92,40.33,29.43,40.3,28.94Z" transform="translate(-0.32 -1.12)"/><rect class="cls-1" y="54.66" width="40.03" height="1.13"/><rect class="cls-1" y="57.53" width="40.03" height="1.42"/><rect class="cls-1" y="60.7" width="40.03" height="1.73"/><path class="cls-1" d="M18.14,8.35S29.21,7,32.25,1.33c.89-1.64-.84,6.79-5.83,7.89" transform="translate(-0.32 -1.12)"/></svg>